<svg xmlns="http://www.w3.org/2000/svg" width="159.867" height="65.016" viewBox="0 0 159.867 65.016">
    <defs>
        <style>
            .cls-1{fill:none}.cls-2{clip-path:url(#clip-path)}
        </style>
        <clipPath id="clip-path">
            <path d="M0 0h159.867v65.016H0z" class="cls-1"/>
        </clipPath>
    </defs>
    <g id="nerds-logo" class="cls-2">
        <g id="nerds-logo-2" data-name="nerds-logo" transform="translate(0 -.984)">
            <path id="Shape" d="M137.26 48.746a10.713 10.713 0 0 1-6.782-2.129 8.446 8.446 0 0 1-3.076-6.465c-.122-2.8 2.223-4.9 7.171-6.43 4.548-1.4 10.755-2.131 16.226-2.658a4.369 4.369 0 0 0-.815-3.265 2.632 2.632 0 0 0-2-.708 20.024 20.024 0 0 0-5.329 1.25l-.569.182a23.741 23.741 0 0 1-6.85 1.433 6.4 6.4 0 0 1-6.041-3.493 6.427 6.427 0 0 1 .3-6.746c1.9-3.232 5.66-5.664 7.731-6.826 2.954-1.658 6.068-2.771 7.748-2.771a1.459 1.459 0 0 1 .952.242c2.715 2.377 3.874 4.044 3.645 5.247-.261 1.379-2.28 2.1-4.835 3.02l-.189.068c-5.64 2.027-6.365 3-6.3 3.4.054.311.583.421 1.06.421a2.677 2.677 0 0 0 .726-.093 21.085 21.085 0 0 1 5.928-.975 8.22 8.22 0 0 1 6.07 2.143c1.553 1.562 2.332 3.968 2.313 7.149.616-.051 1.226-.091 1.816-.13.637-.042 1.3-.085 1.94-.141.088-.008.175-.012.26-.012 1.005 0 1.487.587 1.51 1.132.027.659-.565 1.42-1.93 1.532-1.212.158-2.471.266-3.689.371l-.068.006v.056a17.386 17.386 0 0 1-16.923 15.19zm13.162-14.87a95.411 95.411 0 0 0-10.353 1.6c-3.125.721-4.959 1.544-5.606 2.519a1.426 1.426 0 0 0-.195 1.241c.737 2.4 3.413 4.068 6.507 4.068a8.807 8.807 0 0 0 5.727-2.156 12.752 12.752 0 0 0 3.919-7.267zM5.6 48.448a6.166 6.166 0 0 1-3.7-1.126c-.52-.386-1-2.514-1.345-5.992C.2 37.772 0 32.994 0 27.877 0 19.152 1.153 12.986 2.23 12.7a15.872 15.872 0 0 1 4.044-.648 4 4 0 0 1 3.4 1.325c1.026 1.328 1.071 3.717.136 7.3a47.832 47.832 0 0 0-1.395 7.924c1.775-4.947 4.191-8.559 6.8-10.173a13.436 13.436 0 0 1 6.868-2.371 5.257 5.257 0 0 1 4.086 1.7c1.387 1.573 1.9 4.159 1.48 7.476-1.54 12.778-1.985 16.967-1.323 17.718a.346.346 0 0 0 .272.125 1.266 1.266 0 0 0 .667-.306 2.224 2.224 0 0 1 1.266-.465 1.3 1.3 0 0 1 1.275.956 1.937 1.937 0 0 1-.924 2.151c-2.852 1.923-5.313 2.9-7.315 2.9a4.323 4.323 0 0 1-3.407-1.471c-1.8-2.06-2.3-6.189-1.49-12.275.713-5.361.555-8.8-.456-9.959a1.155 1.155 0 0 0-.893-.429 2.818 2.818 0 0 0-1.774.946c-2.7 2.558-4.624 9.307-4.684 16.412.258 1.6.6 3.211 1 4.775a.916.916 0 0 1-.239.774A5.69 5.69 0 0 1 5.6 48.448zm57.73-.065a6.18 6.18 0 0 1-3.765-1.154c-1.058-.787-1.617-6.908-1.617-17.7a60.775 60.775 0 0 1 1.108-11.662c.612-3.048 1.359-5.11 1.9-5.255a12.823 12.823 0 0 1 3.334-.489 5.272 5.272 0 0 1 4.521 1.912c1 1.393 1.1 3.408.285 5.826a65.357 65.357 0 0 0-2.843 10.4 44.21 44.21 0 0 1 4.593-9.148c1.795-2.674 3.648-4.575 5.22-5.353a8.418 8.418 0 0 1 3.734-.99 4.862 4.862 0 0 1 3.857 1.74c1.349 1.611 1.8 4.118 1.278 7.057a1.726 1.726 0 0 0-.112.449 15.475 15.475 0 0 1-.37 1.628 3.604 3.604 0 0 0-.057.223.7.7 0 0 0 .025-.074 10.616 10.616 0 0 1-1.328 2.944 12.281 12.281 0 0 1-5.968 5.063 6.233 6.233 0 0 1-1.789.274 3.836 3.836 0 0 1-2.376-.707 2.743 2.743 0 0 1-1.02-2.267 4.53 4.53 0 0 1 .788-2.234 6.986 6.986 0 0 1 2.837-2.487c-.13-1.481-.868-2.006-1.46-2.006a1.306 1.306 0 0 0-.826.32c-3.279 2.534-7.432 12.154-6.357 19.22a1.6 1.6 0 0 1 .055.506L67 44.5c.159.583.323 1.185.537 1.776a.757.757 0 0 1-.134.715c-.564.791-2.316 1.391-4.076 1.391zm-19.348-.369a19.562 19.562 0 0 1-2.213-.126 11.706 11.706 0 0 1-8.348-4.606 13.721 13.721 0 0 1-2.449-5.808 21.59 21.59 0 0 1 .092-7.684 16.5 16.5 0 0 1 6.253-9.823 19.57 19.57 0 0 1 5-2.878 14.545 14.545 0 0 1 5.161-1.04 7.615 7.615 0 0 1 6.782 3.4 7.231 7.231 0 0 1 1.115 3.494 10.792 10.792 0 0 1-.545 3.976 18.505 18.505 0 0 1-4.4 7.07 22.483 22.483 0 0 1-7.765 5.243l-.5.168a9.748 9.748 0 0 0 2.435 3.795 5.127 5.127 0 0 0 3.448 1.435c1.732 0 3.512-.992 5.149-2.87a3.3 3.3 0 0 1 2.005-1.31.544.544 0 0 1 .508.28c.266.482-.006 1.456-.729 2.605a9.267 9.267 0 0 1-4.455 3.465 17.406 17.406 0 0 1-6.547 1.214zm2.4-28.8c-.919 0-1.956 1.164-2.846 3.193a33.751 33.751 0 0 0-2.215 9.349 20.472 20.472 0 0 0 .056 4.16c5.886-4.182 7.788-13.349 6.189-15.906a1.44 1.44 0 0 0-1.185-.793zm71.318 9.451h-.027a.166.166 0 0 1-.116-.071c-.554-.677-.557-6.171.229-11.618.539-3.731 3.868-4.134 5.274-4.134a8.4 8.4 0 0 1 2.865.5c.8.3 1.324.7 1.41 1.057.061.255-.1.487-.457.67-1.988 1.016-3.319 4.629-4.494 7.816a34.779 34.779 0 0 1-1.772 4.271c-.605 1.115-2.482 1.509-2.912 1.509zM37.485 10.822a4.909 4.909 0 0 1-3.672-1.553 2.9 2.9 0 0 1-.627-2.53 5.528 5.528 0 0 1 3.263-3.664 5.9 5.9 0 0 1 2.515-.722c1.333 0 2.36.783 3.14 2.395a3.767 3.767 0 0 1-.084 3.773 5.375 5.375 0 0 1-4.535 2.301zm14.543-1.6a5.341 5.341 0 0 1-4-1.691 3.154 3.154 0 0 1-.682-2.755A6.02 6.02 0 0 1 50.9.787 6.4 6.4 0 0 1 53.641 0c1.451 0 2.57.853 3.421 2.606a4.1 4.1 0 0 1-.093 4.106 5.145 5.145 0 0 1-2.082 1.83 6.4 6.4 0 0 1-2.859.677z" transform="translate(0 17.254)"/>
            <path id="Shape-2" d="M29.788 64.638a14.665 14.665 0 0 1-1.5-.077c-2.923-.368-4.929-2.169-6.134-5.505a8.669 8.669 0 0 1-1.56 2.3 9.3 9.3 0 0 1-6.92 3.144 10.378 10.378 0 0 1-1.057-.055 9.12 9.12 0 0 1-6.435-3.726 13.881 13.881 0 0 1-2.447-6.107 24.493 24.493 0 0 1 .182-8.312 16.56 16.56 0 0 1 5.077-9.58 12.02 12.02 0 0 1 7.812-3.188 8.215 8.215 0 0 1 3.839.907c.119-1.427.226-2.731.335-4.1.027-.139.041-.281.055-.418s.028-.283.056-.425a98.866 98.866 0 0 1-4.963.957 35.793 35.793 0 0 1-5.8.533A14.106 14.106 0 0 1 3.62 29.6 6.56 6.56 0 0 1 .5 26.09c-.882-2.35-.582-5.549.844-9.008A20.79 20.79 0 0 1 6.26 9.765c3.068-2.651 4.651-3.047 5.322-3.047a.89.89 0 0 1 .96.6 1.892 1.892 0 0 1-.985 1.882 7.1 7.1 0 0 0-2.428 4.242 12.466 12.466 0 0 0 .057 6.265 7.363 7.363 0 0 0 2.462 3.815 8.09 8.09 0 0 0 5.15 1.583 46.8 46.8 0 0 0 4.962-.281C23.117 17.272 25.69 10.9 29.2 6.4 32.42 2.274 36.257 0 40 0a9.132 9.132 0 0 1 3.114.547 8.34 8.34 0 0 1 3.976 2.925 8.128 8.128 0 0 1 1.48 4.6 11.339 11.339 0 0 1-.9 4.517 17.492 17.492 0 0 1-3 4.781 27.467 27.467 0 0 1-5.3 4.659 42.624 42.624 0 0 1-7.8 4.151 87.478 87.478 0 0 0-1.115 7.531 101.958 101.958 0 0 0-.55 13.769 38.981 38.981 0 0 0 1.163 9.217 5.824 5.824 0 0 0 1.386 2.194 3.392 3.392 0 0 0 2.3 1.085 3.241 3.241 0 0 0 2.391-1.257 4.226 4.226 0 0 1 2.819-1.639 1.031 1.031 0 0 1 1.025.6c.33.8-.294 2.094-1.67 3.459a11.809 11.809 0 0 1-4.11 2.517 15.531 15.531 0 0 1-5.421.982zM19.352 37.207c-1.4 0-2.8 1.125-3.959 3.169a21.664 21.664 0 0 0-2.332 7.889c-.595 5.267.654 8.779 2.021 10.31a2.461 2.461 0 0 0 1.76.966 1.606 1.606 0 0 0 1.128-.485c1.7-1.719 2.528-7.371 2.676-8.486-.238-3.759-.218-7.992-.167-11.636 0-.26.015-.521.029-.773s.027-.47.027-.688a2.853 2.853 0 0 0-1.183-.266zM43.065 6.556c-.717 0-2.65.341-5.11 3.5a34.116 34.116 0 0 0-5.322 11.678 27.732 27.732 0 0 0 8.44-6.139 16.09 16.09 0 0 0 3.673-5.947 2.931 2.931 0 0 0-.015-2.248 1.915 1.915 0 0 0-1.665-.847z" data-name="Shape" transform="translate(81.634 .985)"/>
        </g>
    </g>
</svg>
